<svg width="18" height="18" viewBox="0 0 18 18" fill="none" xmlns="http://www.w3.org/2000/svg">
<path d="M17.7023 9.23926C17.6555 9.35338 17.5758 9.45106 17.4735 9.52C17.3711 9.58895 17.2507 9.62607 17.1273 9.62668H15.252V15.8754C15.252 16.3726 15.0545 16.8494 14.7028 17.2009C14.3511 17.5525 13.8741 17.75 13.3768 17.75H10.8765C10.7107 17.75 10.5517 17.6842 10.4345 17.567C10.3172 17.4498 10.2514 17.2909 10.2514 17.1251V13.3759C10.2514 13.2102 10.1855 13.0512 10.0683 12.9341C9.95108 12.8169 9.79208 12.751 9.6263 12.751H8.37614C8.21036 12.751 8.05137 12.8169 7.93414 12.9341C7.81692 13.0512 7.75106 13.2102 7.75106 13.3759V17.1251C7.75106 17.2909 7.6852 17.4498 7.56798 17.567C7.45075 17.6842 7.29176 17.75 7.12598 17.75H4.62565C4.12831 17.75 3.65133 17.5525 3.29966 17.2009C2.94798 16.8494 2.75041 16.3726 2.75041 15.8754V9.62668H0.875168C0.751761 9.62607 0.631298 9.58895 0.52896 9.52C0.426621 9.45106 0.346987 9.35338 0.300093 9.23926C0.252225 9.12547 0.239147 9.00005 0.262509 8.87883C0.28587 8.75761 0.344626 8.64603 0.431361 8.55815L8.55741 0.434836C8.61552 0.376268 8.68466 0.329781 8.76083 0.298057C8.837 0.266333 8.9187 0.25 9.00122 0.25C9.08374 0.25 9.16544 0.266333 9.24161 0.298057C9.31778 0.329781 9.38692 0.376268 9.44503 0.434836L17.5711 8.55815C17.6578 8.64603 17.7166 8.75761 17.7399 8.87883C17.7633 9.00005 17.7502 9.12547 17.7023 9.23926Z" fill="white"/>
</svg>
