<svg width="18" height="18" viewBox="0 0 18 18" fill="none" xmlns="http://www.w3.org/2000/svg">
<path d="M9 0.25C7.26942 0.25 5.57769 0.763178 4.13876 1.72464C2.69983 2.6861 1.57832 4.05267 0.916058 5.65152C0.253791 7.25037 0.0805121 9.0097 0.418133 10.707C0.755753 12.4044 1.58911 13.9635 2.81282 15.1872C4.03653 16.4109 5.59563 17.2442 7.29296 17.5819C8.9903 17.9195 10.7496 17.7462 12.3485 17.0839C13.9473 16.4217 15.3139 15.3002 16.2754 13.8612C17.2368 12.4223 17.75 10.7306 17.75 9C17.7473 6.68019 16.8245 4.45619 15.1842 2.81584C13.5438 1.17549 11.3198 0.252737 9 0.25ZM12.7442 7.57375L8.76693 11.551C8.61776 11.7001 8.41547 11.7839 8.20455 11.7839C7.99362 11.7839 7.79133 11.7001 7.64216 11.551L5.2558 9.16466C5.17982 9.09128 5.11922 9.0035 5.07754 8.90646C5.03585 8.80941 5.0139 8.70503 5.01299 8.59941C5.01207 8.49379 5.03219 8.38904 5.07219 8.29128C5.11219 8.19353 5.17125 8.10471 5.24594 8.03003C5.32063 7.95534 5.40944 7.89627 5.5072 7.85628C5.60496 7.81628 5.7097 7.79615 5.81532 7.79707C5.92094 7.79799 6.02532 7.81993 6.12237 7.86162C6.21942 7.90331 6.30719 7.96391 6.38057 8.03989L8.20455 9.86386L11.6194 6.44898C11.7695 6.30408 11.9704 6.2239 12.179 6.22571C12.3875 6.22753 12.587 6.31118 12.7345 6.45867C12.882 6.60615 12.9657 6.80566 12.9675 7.01423C12.9693 7.22279 12.8891 7.42372 12.7442 7.57375Z" fill="white"/>
</svg>
