<svg width="18" height="18" viewBox="0 0 18 18" fill="none" xmlns="http://www.w3.org/2000/svg">
<path d="M9 0.25C7.26942 0.25 5.57769 0.763178 4.13876 1.72464C2.69983 2.6861 1.57832 4.05267 0.916058 5.65152C0.253791 7.25037 0.0805121 9.0097 0.418133 10.707C0.755753 12.4044 1.58911 13.9635 2.81282 15.1872C4.03653 16.4109 5.59563 17.2442 7.29296 17.5819C8.9903 17.9195 10.7496 17.7462 12.3485 17.0839C13.9473 16.4217 15.3139 15.3002 16.2754 13.8612C17.2368 12.4223 17.75 10.7306 17.75 9C17.7473 6.68019 16.8245 4.45619 15.1842 2.81584C13.5438 1.17549 11.3198 0.252737 9 0.25ZM12.3743 11.2503C12.4503 11.3237 12.5109 11.4115 12.5526 11.5085C12.5943 11.6056 12.6162 11.71 12.6171 11.8156C12.618 11.9212 12.5979 12.026 12.5579 12.1237C12.5179 12.2215 12.4589 12.3103 12.3842 12.385C12.3095 12.4597 12.2207 12.5187 12.1229 12.5587C12.0252 12.5987 11.9204 12.6188 11.8148 12.6179C11.7092 12.617 11.6048 12.5951 11.5077 12.5534C11.4107 12.5117 11.3229 12.4511 11.2495 12.3751L9 10.1248L6.75046 12.3751C6.60043 12.52 6.3995 12.6002 6.19093 12.5984C5.98237 12.5966 5.78286 12.5129 5.63537 12.3654C5.48789 12.2179 5.40423 12.0184 5.40242 11.8099C5.40061 11.6013 5.48079 11.4004 5.62568 11.2503L7.87523 9L5.62568 6.74966C5.54971 6.67628 5.48911 6.58851 5.44742 6.49146C5.40573 6.39441 5.38379 6.29003 5.38287 6.18441C5.38195 6.07879 5.40208 5.97404 5.44208 5.87629C5.48207 5.77853 5.54114 5.68971 5.61582 5.61503C5.69051 5.54034 5.77933 5.48127 5.87708 5.44128C5.97484 5.40128 6.07959 5.38115 6.18521 5.38207C6.29083 5.38299 6.39521 5.40493 6.49226 5.44662C6.5893 5.48831 6.67708 5.54891 6.75046 5.62489L9 7.87523L11.2495 5.62489C11.3229 5.54891 11.4107 5.48831 11.5077 5.44662C11.6048 5.40493 11.7092 5.38299 11.8148 5.38207C11.9204 5.38115 12.0252 5.40128 12.1229 5.44128C12.2207 5.48127 12.3095 5.54034 12.3842 5.61503C12.4589 5.68971 12.5179 5.77853 12.5579 5.87629C12.5979 5.97404 12.618 6.07879 12.6171 6.18441C12.6162 6.29003 12.5943 6.39441 12.5526 6.49146C12.5109 6.58851 12.4503 6.67628 12.3743 6.74966L10.1248 9L12.3743 11.2503Z" fill="#FF764C"/>
</svg>
