<svg width="18" height="18" viewBox="0 0 18 18" fill="none" xmlns="http://www.w3.org/2000/svg">
<path fill-rule="evenodd" clip-rule="evenodd" d="M8.15405 12.7584V9.84697H5.2416C4.12939 9.84697 4.12939 8.15439 5.2416 8.15439H8.15405V5.24194C8.15405 4.12974 9.84663 4.12974 9.84663 5.24194V8.15439H12.7581C13.8703 8.15439 13.8703 9.84697 12.7581 9.84697H9.84663V12.7584C9.84663 13.8706 8.15405 13.8706 8.15405 12.7584ZM9 17.75C13.8327 17.75 17.75 13.833 17.75 9C17.75 4.16733 13.8327 0.25 9 0.25C4.16733 0.25 0.25 4.16733 0.25 9C0.25 13.8327 4.16733 17.75 9 17.75Z" fill="#4CAB6F"/>
</svg>
